<?xml version="1.0" encoding="utf-8"?>
<!-- Generator: Adobe Illustrator 21.1.0, SVG Export Plug-In . SVG Version: 6.00 Build 0)  -->
<svg version="1.1" id="Layer_1" xmlns="http://www.w3.org/2000/svg" xmlns:xlink="http://www.w3.org/1999/xlink" x="0px" y="0px"
	 viewBox="0 0 500 500" style="enable-background:new 0 0 500 500;" xml:space="preserve">
<style type="text/css">
	.st0{fill:none;stroke:#000000;stroke-width:4;stroke-miterlimit:10;}
</style>
<path class="st0" d="M250.5,132.5c-47.1,0-85.5,38.3-85.5,85.5v76c0,47.1,38.3,85.5,85.5,85.5s85.5-38.3,85.5-85.5v-76
	C335.9,170.8,297.6,132.5,250.5,132.5z M302.7,338.2c-4.9,0-10.4-3.4-16.8-7.3c-7.5-4.6-16.1-9.8-26.7-11.6
	c-14.5-2.4-24.2,3.1-36.4,10.1c-9.7,5.5-17.8,8.5-34,8.8c-1.9-2.6-3.6-5.3-5.1-8.1c19.6-1.2,35.4-7.4,44.1-13.2l2-1.3
	c8.5-5.7,16.6-11.2,26.8-10.6c16.6,1,24.5,7.8,31.4,13.8c3.6,3.2,7,6.1,11.3,7.9c6.9,2.9,12.1,2.8,18.5,2.4
	c-1.7,3.2-3.5,6.2-5.6,9.1H302.7z M318,319.6c-6.2,0.4-9.9,0.6-15-1.6c-2.9-1.2-5.6-3.6-8.8-6.4c-7.3-6.3-17.2-15-37.1-16.1
	c-13.4-0.8-23.6,6.1-32.6,12.1l-1.9,1.3c-7.8,5.2-23.6,11.3-43.1,11.8c-1.2-3.1-2.1-6.3-2.9-9.6c5.4-0.4,14.6-1.5,29.1-4.7
	c30.3-6.7,50-36.1,55.3-44.9c2.6-4.3,8.7-20.1,10.1-30.3c0.8-5.3,2.6-23.3-5.7-32.8c-3.3-3.8-7.9-5.9-13.2-5.9
	c-28.5,0-28.5,28.6-28.5,38c0,15.9-27.6,32-34.2,33.3c-5.1,1-10.9,1.4-14.9,1.5v-8.1c12.5-1.2,37.7-8.8,39.5-29.5
	c0.7-7.5,5.7-44.7,38-44.7c20.3,0,25.7,14.1,28.3,28l0.3,1.5c0.5,2.5,1.2,13.7,1.9,23.7c1.3,19.8,2,29.4,3,32.3
	c3,8.9,12.2,23.8,40.9,23.8v1.6c0,1.7-0.1,3.4-0.2,5.1c-7.4,0.5-20.9,0.1-28.6-5.7c-11.9-8.9-19.5-19.4-19.6-19.5
	c-1.5-2.1-4.5-2.6-6.6-1.1c-2.1,1.5-2.6,4.5-1.1,6.6c0.3,0.5,8.5,11.8,21.6,21.6c8.7,6.5,21,7.8,29.5,7.8c1.3,0,2.5,0,3.6-0.1
	c-0.7,3.7-1.7,7.3-3,10.8C320.6,319.4,319.2,319.5,318,319.6z M326.4,282.8c-17.1,0-28.1-6-31.9-17.3c-0.7-2.5-1.8-19-2.5-29.9
	c-0.9-13.5-1.5-22-2.1-24.9l-0.3-1.4c-1.7-8.8-6.7-35.7-37.6-35.7c-31.4,0-45.2,28.8-47.5,53.4c-1.3,14.1-20.8,19.6-30.1,20.8v-9.1
	c13.3-2.7,22.2-6.9,25.3-31.2c3-24.3,24.6-43.3,49.1-43.3c26.1,0,46.3,13.9,49.1,33.9c1,6.9,1.1,19.2,1.2,31
	c0.2,20.4,0.4,29.7,2.4,33.7c5.7,11.4,19.3,12.1,22.5,12.1c0.4,0,0.7,0,0.7,0h1.6V282.8z M174.5,296c10.3-1.3,35.7-5.8,49.2-19.4
	c18.7-18.7,29.9-38.9,29.9-54c0-2.6-2.1-4.7-4.7-4.7c-2.6,0-4.7,2.1-4.7,4.7c0,9.8-7.1,27.3-27.1,47.3c-11,11-32.7,15.1-42.5,16.5
	v-11.6c4.3-0.1,10.8-0.5,16.8-1.6c10.1-2,41.8-20.9,41.8-42.6c0-25,9.1-28.5,19-28.5c2.6,0,4.5,0.8,6.1,2.6
	c4.2,4.8,4.8,16.2,3.5,25.2c-1.3,8.9-6.9,23.5-8.9,26.7c-3.4,5.7-21.9,34.5-49.2,40.5c-15.1,3.3-24.1,4.3-28.6,4.6
	C174.7,299.8,174.6,297.9,174.5,296z M250.5,141.9c41.9,0,76,34.1,76,76v47.5l-1.8,0c-0.1,0-10.9,0.4-14.5-6.8
	c-1.3-2.9-1.4-18.3-1.5-29.6c-0.1-12.2-0.2-24.7-1.3-32.3c-3.5-24.8-27.6-42.1-58.5-42.1c-29.2,0-54.9,22.7-58.5,51.6
	c-2.3,18.2-7,20.8-15.9,22.7v-11.1C174.5,176,208.6,141.9,250.5,141.9z M196.5,347.3c13.5-1.1,21.8-4.4,31-9.7
	c12.8-7.3,19.4-10.7,30.1-8.9c8.8,1.5,16.2,6,23.3,10.3c7.3,4.5,14.3,8.7,21.8,8.7h1.3c-2.4,2.3-4.9,4.5-7.5,6.5
	c-1.3-0.6-3.2-1.7-4.8-2.6c-6.2-3.4-14.6-8.1-22.7-10.1c-1.8-0.5-3.3-0.8-4.5-1.2c-6.1-1.6-8.4-2.1-18.8-2.1c-9.4,0-17.7,4.7-25,8.9
	c-5.8,3.3-11.2,6.4-16.5,7C201.5,352,198.9,349.7,196.5,347.3z M214.8,360.9c3.7-1.6,7.2-3.6,10.7-5.6c6.9-3.9,13.4-7.7,20.2-7.7
	c9.6,0,11,0.4,16.3,1.8c1.3,0.3,2.8,0.8,4.7,1.2c6.9,1.7,14.7,6.1,20.4,9.2c0.1,0.1,0.3,0.1,0.4,0.2c-11,6.2-23.6,9.7-37,9.7
	C237.6,369.8,225.4,366.6,214.8,360.9z"/>
</svg>
