<?xml version="1.0" encoding="utf-8"?>
<!-- Generator: Adobe Illustrator 21.1.0, SVG Export Plug-In . SVG Version: 6.00 Build 0)  -->
<svg version="1.1" id="Layer_1" xmlns="http://www.w3.org/2000/svg" xmlns:xlink="http://www.w3.org/1999/xlink" x="0px" y="0px"
	 viewBox="0 0 500 500" style="enable-background:new 0 0 500 500;" xml:space="preserve">
<style type="text/css">
	.st0{fill:none;stroke:#000000;stroke-width:4;stroke-miterlimit:10;}
</style>
<path class="st0" d="M161.2,276c13.2,31.5,45,52.9,81.1,51.2c7.7-0.4,15.1-1.8,22.1-4.1"/>
<path class="st0" d="M212.7,160.9c7.7-2.3,15.8-3.5,24.2-3.5c36.2,0,67,23,78.6,55.1"/>
<path class="st0" d="M136.1,251.4c5.2,52.2,49.3,92.9,102.9,92.9c23.3,0,44.9-7.7,62.2-20.8c-11-7.6-18.5-19.9-19.7-34
	c-20.7,19-52.1,23.3-77.6,8.6c-22.6-13-34.5-37.4-32.8-61.7l3,3c0.3,0.3,0.7,0.4,1,0.4c0.3,0,0.6-0.1,0.9-0.3c4-3,7.6-6.5,10.7-10.4
	c0.5-0.6,0.4-1.4-0.1-1.9l-9.3-9.3c3.8-5.3,6.4-11.3,7.7-17.7v0c0.1-0.2,0.3-0.4,0.5-0.6h12.8c0.7,0,1.3-0.5,1.4-1.3
	c0.3-2.4,0.4-4.9,0.4-7.3c0-1.6-0.1-3.2-0.2-4.7c20.3-13.7,47.4-15.5,70-2.5c23.1,13.3,35,38.4,32.7,63.3c7.1-4.5,15.6-7.2,24.7-7.2
	c5.3,0,10.4,0.9,15.1,2.6c0-0.5,0-1.1,0-1.6c0-57.1-46.3-103.4-103.4-103.4c-19.4,0-37.5,5.3-53,14.6 M326.1,296.5
	c-6-0.8-10.7-5.9-10.7-12.2c0-6.8,5.5-12.3,12.3-12.3c3.4,0,6.4,1.4,8.7,3.6"/>
<path class="st0" d="M137.5,221.2c-15.4-1.2-27.6-14.1-27.6-29.8c0-16.5,13.4-29.9,29.9-29.9c9,0,17,3.9,22.5,10.2 M199.9,186.3
	c-0.1-0.9-0.2-1.9-0.3-2.8c-0.1-0.7-0.7-1.3-1.4-1.3h-13.1c-1.1-5.9-3.3-11.4-6.6-16.4l9.4-9.4c0.6-0.5,0.6-1.4,0-2
	c-0.6-0.7-1.3-1.4-2-2.1c-2.4-2.6-5.2-5.3-8.2-7.8c-0.1,0-0.1-0.1-0.2-0.1c-0.4-0.4-1.1-0.4-1.5,0c-0.1,0.1-0.2,0.1-0.3,0.2l-8.9,9
	c-5.5-4-11.8-6.7-18.5-8v-13.1c0-0.7-0.5-1.3-1.2-1.4c-4.5-0.6-9.2-0.6-13.7-0.2c-0.7,0.1-1.3,0.7-1.3,1.4v13
	c-7.2,1.2-14,4-19.9,8.3l-9.3-9.3c-0.5-0.5-1.4-0.6-1.9-0.1c-3.5,2.9-6.8,6.2-9.6,9.9c-0.4,0.6-0.4,1.4,0.1,1.9l9.4,9.4
	c-3.4,5.1-5.7,10.8-6.8,16.8H80.8c-0.7,0-1.3,0.5-1.4,1.2c-0.3,2.5-0.5,5-0.5,7.6c0,2.4,0.2,4.9,0.4,7.3c0.1,0.7,0.7,1.3,1.4,1.3
	h13.4c1.3,6.6,4,12.9,7.9,18.3l-9.4,9.4c-0.5,0.5-0.5,1.3-0.1,1.8c3.1,3.9,6.8,7.3,10.7,10.3c0.2,0.2,0.5,0.3,0.8,0.3
	c0.4,0,0.7-0.1,1-0.4l9.5-9.5c4.8,3.1,10.1,5.2,15.7,6.4v13.4c0,0.7,0.5,1.2,1.2,1.3c1.5,0.2,3.1,0.3,4.6,0.4
	c1.1,0.1,2.3,0.1,3.4,0.1c1.9,0,3.8-0.1,5.7-0.3c0.7-0.1,1.2-0.6,1.2-1.3v-13.2c6.4-1,12.7-3.3,18.1-6.8l6.4,6.5l3,3
	c0.3,0.3,0.7,0.4,1,0.4c0.3,0,0.6-0.1,0.9-0.3c4-3,7.6-6.5,10.7-10.4c0.5-0.6,0.4-1.4-0.1-1.9l-9.3-9.3c3.8-5.3,6.4-11.3,7.7-17.7v0
	c0.1-0.2,0.1-0.4,0.1-0.6h13.1c0.7,0,1.3-0.5,1.4-1.3c0.3-2.4,0.4-4.9,0.4-7.3C200,189.4,200,187.8,199.9,186.3z"/>
<path class="st0" d="M162.3,171.6c4.6,5.3,7.5,12.2,7.5,19.7c0,16.5-13.4,29.9-29.9,29.9c-0.8,0-1.6,0-2.3-0.1"/>
<path class="st0" d="M281.5,289.5c-0.1-1.2-0.2-2.5-0.2-3.7c0-16.2,8.5-30.5,21.2-38.6"/>
<path class="st0" d="M326.1,296.5c-6-0.8-10.7-5.9-10.7-12.2c0-6.8,5.5-12.3,12.3-12.3c3.4,0,6.4,1.4,8.7,3.6 M281.5,289.5
	c1.1,14.1,8.7,26.4,19.7,34 M302.5,247.1c7.1-4.5,15.6-7.2,24.7-7.2c5.3,0,10.4,0.9,15.1,2.6"/>
<path class="st0" d="M336.4,275.6c2.2,2.2,3.6,5.3,3.6,8.7c0,6.8-5.5,12.3-12.3,12.3c-0.5,0-1.1,0-1.6-0.1 M342.3,242.5
	c17.9,6.2,30.7,23.3,30.7,43.3c0,16.4-8.6,30.8-21.5,38.9V351h-23.8h-24.8v-26.4c-0.6-0.4-1.1-0.7-1.7-1.1"/>
<line class="st0" x1="327.7" y1="351.6" x2="327.2" y2="297.6"/>
<line class="st0" x1="300.5" y1="366" x2="354.9" y2="366"/>
<polygon points="156.1,260.6 169.5,272.2 152.8,278 "/>
<polygon points="319.5,221.2 305.5,210.4 321.9,203.7 "/>
<line class="st0" x1="344.5" y1="278.5" x2="361.5" y2="272.5"/>
<line class="st0" x1="327.5" y1="263.5" x2="327.5" y2="246.5"/>
<line class="st0" x1="308.5" y1="278.5" x2="293.5" y2="270.5"/>
<line class="st0" x1="342.6" y1="298.1" x2="349.5" y2="304.5"/>
<line class="st0" x1="310.5" y1="297.5" x2="301.5" y2="302.5"/>
</svg>
