<?xml version="1.0" encoding="utf-8"?>
<!-- Generator: Adobe Illustrator 21.1.0, SVG Export Plug-In . SVG Version: 6.00 Build 0)  -->
<svg version="1.1" id="Layer_1" xmlns="http://www.w3.org/2000/svg" xmlns:xlink="http://www.w3.org/1999/xlink" x="0px" y="0px"
	 viewBox="0 0 500 500" style="enable-background:new 0 0 500 500;" xml:space="preserve">
<style type="text/css">
	.st0{fill:none;stroke:#000000;stroke-width:4;stroke-miterlimit:10;}
	.st1{fill:none;stroke:#000000;stroke-width:4;stroke-linecap:square;stroke-linejoin:round;stroke-miterlimit:10;}
	.st2{stroke:#000000;stroke-width:0;stroke-miterlimit:10;}
	.st3{fill:#FFFFFF;}
	.st4{stroke:#FFFFFF;stroke-miterlimit:10;}
</style>
<polyline class="st0" points="380,204.8 229.5,117.9 79,204.8 "/>
<polyline class="st1" points="346,342.5 346,208 229.5,140.7 113,208 113,342.5 "/>
<rect x="132.4" y="303.6" class="st0" width="190.1" height="35.8"/>
<rect x="142.6" y="303.6" class="st2" width="9.1" height="23.5"/>
<rect x="303.1" y="303.6" class="st2" width="9.1" height="23.5"/>
<rect x="263" y="303.6" class="st2" width="9.1" height="23.5"/>
<rect x="222.9" y="303.6" class="st2" width="9.1" height="23.5"/>
<rect x="182.7" y="303.6" class="st2" width="9.1" height="23.5"/>
<rect x="162" y="303.6" class="st2" width="9.1" height="11.2"/>
<rect x="282.4" y="303.6" class="st2" width="9.1" height="11.2"/>
<rect x="242.3" y="303.6" class="st2" width="9.1" height="11.2"/>
<rect x="202.2" y="303.6" class="st2" width="9.1" height="11.2"/>
<g>
	<rect x="201.3" y="230.2" transform="matrix(0.8176 -0.5759 0.5759 0.8176 -91.7115 184.5082)" width="88.1" height="13.5"/>
	<path class="st3" d="M277.3,206.8l7.2,10.2l-71.2,50.1l-7.2-10.2L277.3,206.8 M277.6,205.4l-72.8,51.3l8.3,11.9l72.8-51.3
		L277.6,205.4L277.6,205.4z"/>
</g>
<g>
	<rect x="282.9" y="201" transform="matrix(0.8176 -0.5758 0.5758 0.8176 -67.0751 203.8721)" width="10.7" height="13.5"/>
	<path class="st3" d="M288.6,199.9l7.2,10.2l-8,5.6l-7.2-10.2L288.6,199.9 M288.8,198.5l-9.6,6.8l8.3,11.9l9.6-6.8L288.8,198.5
		L288.8,198.5z"/>
</g>
<polygon class="st4" points="197.2,271 211.5,269.7 203.2,258 "/>
<line class="st0" x1="134.9" y1="271.4" x2="190.1" y2="271.4"/>
</svg>
