<?xml version="1.0" encoding="utf-8"?>
<!-- Generator: Adobe Illustrator 21.1.0, SVG Export Plug-In . SVG Version: 6.00 Build 0)  -->
<svg version="1.1" id="Layer_1" xmlns="http://www.w3.org/2000/svg" xmlns:xlink="http://www.w3.org/1999/xlink" x="0px" y="0px"
	 viewBox="0 0 500 500" style="enable-background:new 0 0 500 500;" xml:space="preserve">
<style type="text/css">
	.st0{fill:none;stroke:#000000;stroke-width:4;stroke-miterlimit:10;}
	.st1{fill:#FFFFFF;stroke:#000000;stroke-width:4;stroke-miterlimit:10;}
	.st2{fill:none;stroke:#000000;stroke-width:2;stroke-miterlimit:10;}
</style>
<rect x="155" y="105.3" class="st0" width="189.4" height="224.1"/>
<rect x="178.6" y="96.5" class="st1" width="18.7" height="18.7"/>
<rect x="298.7" y="96.5" class="st1" width="18.7" height="18.7"/>
<line class="st0" x1="187.5" y1="96.5" x2="187.5" y2="70.1"/>
<line class="st0" x1="308.6" y1="96.5" x2="308.6" y2="70.1"/>
<path class="st0" d="M269,164.4c-18.6-8.3-34.9-12.5-36.3-9.3c-0.1,0.3-0.1,0.7,0,1.1l9.4,61.8l-20.3,45.6
	c-11.8-4.9-22-6.6-23.3-3.7c-1.4,3.1,7.9,10.2,20.7,15.9c12.8,5.7,24.2,7.8,25.6,4.7c1.3-2.9-6.8-9.3-18.4-14.8l20.1-45.1l52.6-34.7
	c0.6-0.2,0.9-0.4,1.1-0.8C301.6,181.9,287.7,172.7,269,164.4z"/>
<line class="st0" x1="239.7" y1="201.6" x2="300.9" y2="157.1"/>
<circle class="st2" cx="303.6" cy="155.4" r="3.3"/>
<ellipse transform="matrix(0.9171 -0.3987 0.3987 0.9171 -50.527 120.7742)" class="st1" cx="265.1" cy="181.9" rx="5" ry="8.3"/>
<ellipse transform="matrix(0.9171 -0.3987 0.3987 0.9171 -55.574 116.3277)" class="st1" cx="251.9" cy="191.8" rx="5" ry="8.3"/>
</svg>
